<svg xmlns="http://www.w3.org/2000/svg" viewBox="0 0 100 100">
  <rect x="0" y="0" width="100" height="100" rx="22" fill="#ffffff"/>
  <g transform="translate(-115.64,-32.10) scale(1.0690)">
    <path style=" stroke:none;fill-rule:nonzero;fill:#213770;fill-opacity:1;" d="M 150.574219 86.914062 L 144.40625 86.886719 L 145.65625 79.152344 L 149.386719 79.167969 Z M 150.574219 86.914062 "/>
    <path style=" stroke:none;fill-rule:nonzero;fill:#213770;fill-opacity:1;" d="M 165.222656 86.972656 L 159.054688 86.945312 L 160.304688 79.085938 L 164.035156 79.101562 Z M 165.222656 86.972656 "/>
    <path style=" stroke:none;fill-rule:nonzero;fill:#213770;fill-opacity:1;" d="M 157.894531 86.941406 L 151.722656 86.917969 L 152.96875 80.636719 L 156.699219 80.652344 Z M 157.894531 86.941406 "/>
    <path style=" stroke:none;fill-rule:nonzero;fill:#213770;fill-opacity:1;" d="M 142.648438 75.535156 L 136.011719 75.507812 L 136.023438 72.210938 L 142.957031 67.167969 Z M 142.648438 75.535156 "/>
    <path style=" stroke:none;fill-rule:nonzero;fill:#213770;fill-opacity:1;" d="M 166.441406 75.628906 L 173.925781 75.660156 L 173.9375 72.363281 L 167.046875 67.265625 Z M 166.441406 75.628906 "/>
    <path style=" stroke:none;fill-rule:nonzero;fill:#213770;fill-opacity:1;" d="M 141.578125 70.046875 L 146.746094 70.066406 C 146.730469 74.554688 150.363281 78.214844 154.847656 78.234375 C 159.335938 78.253906 162.996094 74.617188 163.015625 70.132812 L 168.1875 70.152344 C 168.15625 77.488281 162.164062 83.433594 154.828125 83.402344 C 147.492188 83.375 141.546875 77.382812 141.578125 70.046875 "/>
    <path style=" stroke:none;fill-rule:nonzero;fill:#213770;fill-opacity:1;" d="M 146.820312 71.164062 L 141.652344 71.164062 L 141.652344 61.070312 L 146.832031 59.570312 Z M 146.820312 71.164062 "/>
    <path style=" stroke:none;fill-rule:nonzero;fill:#213770;fill-opacity:1;" d="M 163.019531 71.164062 L 168.1875 71.164062 L 168.257812 61.015625 L 163.089844 59.90625 Z M 163.019531 71.164062 "/>
    <path style=" stroke:none;fill-rule:nonzero;fill:rgb(88.235474%,0%,10.195923%);fill-opacity:1;" d="M 150.253906 89.308594 L 148.8125 105.792969 L 146.066406 105.785156 L 144.757812 89.285156 Z M 150.253906 89.308594 "/>
    <path style=" stroke:none;fill-rule:nonzero;fill:rgb(88.235474%,0%,10.195923%);fill-opacity:1;" d="M 157.324219 89.335938 L 155.898438 101.699219 L 153.152344 101.6875 L 151.824219 89.316406 Z M 157.324219 89.335938 "/>
    <path style=" stroke:none;fill-rule:nonzero;fill:rgb(88.235474%,0%,10.195923%);fill-opacity:1;" d="M 164.78125 89.367188 L 163.375 97.410156 L 160.628906 97.398438 L 159.285156 89.347656 Z M 164.78125 89.367188 "/>
    <path style=" stroke:none;fill-rule:nonzero;fill:#213770;fill-opacity:1;" d="M 168.261719 61.015625 L 163.089844 61.066406 C 163.042969 56.582031 159.359375 52.96875 154.871094 53.015625 C 150.386719 53.058594 146.777344 56.746094 146.820312 61.230469 L 141.652344 61.28125 C 141.578125 53.945312 147.488281 47.917969 154.820312 47.847656 C 162.15625 47.773438 168.1875 53.679688 168.261719 61.015625 "/>
    <path style=" stroke:none;fill-rule:nonzero;fill:rgb(88.235474%,0%,10.195923%);fill-opacity:1;" d="M 154.917969 56.34375 C 157.007812 56.324219 158.71875 58 158.742188 60.089844 C 158.761719 62.179688 157.082031 63.894531 154.992188 63.914062 C 152.902344 63.933594 151.191406 62.257812 151.171875 60.167969 C 151.148438 58.074219 152.828125 56.363281 154.917969 56.34375 "/>
  </g>
</svg>
