<svg xmlns="http://www.w3.org/2000/svg" viewBox="72.28 45.77 282.60 62.02">
<path style=" stroke:none;fill-rule:nonzero;fill:rgb(88.235474%,0%,10.195923%);fill-opacity:1;" d="M 250.507812 59.722656 L 250.507812 87.898438 L 267.613281 87.898438 L 267.613281 90.113281 L 248.164062 90.113281 L 248.164062 59.722656 Z M 250.507812 59.722656 "/>
<path style=" stroke:none;fill-rule:nonzero;fill:rgb(88.235474%,0%,10.195923%);fill-opacity:1;" d="M 292.960938 80.472656 L 284.796875 61.980469 L 276.636719 80.472656 Z M 297.214844 90.113281 L 293.871094 82.644531 L 275.726562 82.644531 L 272.425781 90.113281 L 269.910156 90.113281 L 283.539062 59.722656 L 286.101562 59.722656 L 299.730469 90.113281 Z M 297.214844 90.113281 "/>
<path style=" stroke:none;fill-rule:nonzero;fill:rgb(88.235474%,0%,10.195923%);fill-opacity:1;" d="M 304.558594 87.851562 L 314.675781 87.851562 C 318.496094 87.851562 323.402344 86.941406 323.402344 82.125 C 323.359375 77.390625 319.058594 75.699219 314.976562 75.699219 L 304.558594 75.699219 Z M 304.558594 73.484375 L 314.976562 73.484375 C 318.625 73.484375 322.445312 72.355469 322.445312 68.015625 C 322.445312 63.585938 318.453125 61.71875 314.675781 61.71875 L 304.558594 61.71875 Z M 324.660156 68.015625 C 324.660156 71.140625 322.75 73.570312 319.710938 74.527344 C 323.53125 75.570312 325.703125 78.652344 325.703125 82.167969 C 325.703125 88.417969 319.882812 90.113281 314.675781 90.113281 L 302.214844 90.113281 L 302.214844 59.722656 L 314.675781 59.722656 C 319.796875 59.722656 324.660156 62.242188 324.660156 68.015625 "/>
<path style=" stroke:none;fill-rule:nonzero;fill:rgb(88.235474%,0%,10.195923%);fill-opacity:1;" d="M 350.058594 65.585938 C 347.84375 62.023438 344.285156 61.503906 340.855469 61.460938 C 337.292969 61.460938 331.652344 62.761719 331.652344 67.625 C 331.652344 71.488281 335.820312 72.398438 340.941406 73.355469 C 346.800781 74.484375 352.878906 75.523438 352.878906 82.078125 C 352.835938 88.9375 345.933594 90.589844 340.855469 90.589844 C 336.121094 90.589844 330.742188 88.636719 328.398438 83.988281 L 330.480469 82.949219 C 332.34375 86.640625 337.121094 88.460938 340.855469 88.460938 C 344.585938 88.460938 350.535156 87.421875 350.535156 82.035156 C 350.578125 77.480469 345.542969 76.480469 340.550781 75.523438 C 334.996094 74.4375 329.304688 73.3125 329.304688 67.710938 C 329.175781 61.285156 335.863281 59.289062 340.855469 59.289062 C 345.195312 59.289062 348.972656 59.984375 351.96875 64.453125 Z M 350.058594 65.585938 "/>
<path style=" stroke:none;fill-rule:nonzero;fill:#213770;fill-opacity:1;" d="M 74.28125 75.757812 C 74.28125 67.203125 79.621094 59.304688 90.34375 59.304688 C 94.421875 59.304688 98.503906 60.867188 101.628906 63.949219 L 98.070312 67.597656 C 96.03125 65.640625 92.992188 64.558594 90.34375 64.558594 C 83.832031 64.558594 79.878906 69.503906 79.878906 75.757812 C 79.878906 80.75 82.789062 85.914062 90.34375 85.914062 C 92.730469 85.914062 94.8125 85.394531 97.203125 83.484375 L 97.203125 78.101562 L 89.429688 78.101562 L 89.429688 72.980469 L 102.453125 72.980469 L 102.453125 85.785156 C 99.457031 89.214844 95.683594 91.253906 90.34375 91.253906 C 78.925781 91.253906 74.28125 83.746094 74.28125 75.757812 "/>
<path style=" stroke:none;fill-rule:nonzero;fill:#213770;fill-opacity:1;" d="M 112.371094 65.511719 L 112.371094 75.234375 L 121.097656 75.234375 C 124.742188 75.234375 126.304688 72.804688 126.304688 70.375 C 126.304688 67.941406 124.699219 65.511719 121.097656 65.511719 Z M 133.667969 90.558594 L 126.738281 90.558594 L 117.882812 80.402344 L 112.371094 80.402344 L 112.371094 90.558594 L 106.640625 90.558594 L 106.640625 60.128906 C 111.460938 60.128906 116.277344 60.171875 121.097656 60.171875 C 128.257812 60.214844 132.035156 64.992188 132.035156 70.242188 C 132.035156 74.410156 129.855469 78.621094 124.082031 79.792969 L 133.285156 90.167969 Z M 133.667969 90.558594 "/>
<path style=" stroke:none;fill-rule:nonzero;fill:#213770;fill-opacity:1;" d="M 202.605469 60.34375 L 189.105469 74.890625 L 203.734375 90.210938 L 203.734375 90.558594 L 196.660156 90.558594 L 183.9375 77.101562 L 183.9375 90.558594 L 178.210938 90.558594 L 178.210938 60.171875 L 183.9375 60.171875 L 183.9375 73.023438 L 195.488281 60.171875 L 202.605469 60.171875 Z M 202.605469 60.34375 "/>
<path style=" stroke:none;fill-rule:nonzero;fill:#213770;fill-opacity:1;" d="M 207.222656 60.171875 L 212.90625 60.171875 L 212.90625 90.558594 L 207.222656 90.558594 Z M 207.222656 60.171875 "/>
<path style=" stroke:none;fill-rule:nonzero;fill:#213770;fill-opacity:1;" d="M 227.007812 65.382812 L 217.371094 65.382812 L 217.371094 60.171875 L 242.375 60.171875 L 242.375 65.382812 L 232.738281 65.382812 L 232.738281 90.558594 L 227.007812 90.558594 Z M 227.007812 65.382812 "/>
<path style=" stroke:none;fill-rule:nonzero;fill:#213770;fill-opacity:1;" d="M 150.574219 86.914062 L 144.40625 86.886719 L 145.65625 79.152344 L 149.386719 79.167969 Z M 150.574219 86.914062 "/>
<path style=" stroke:none;fill-rule:nonzero;fill:#213770;fill-opacity:1;" d="M 165.222656 86.972656 L 159.054688 86.945312 L 160.304688 79.085938 L 164.035156 79.101562 Z M 165.222656 86.972656 "/>
<path style=" stroke:none;fill-rule:nonzero;fill:#213770;fill-opacity:1;" d="M 157.894531 86.941406 L 151.722656 86.917969 L 152.96875 80.636719 L 156.699219 80.652344 Z M 157.894531 86.941406 "/>
<path style=" stroke:none;fill-rule:nonzero;fill:#213770;fill-opacity:1;" d="M 142.648438 75.535156 L 136.011719 75.507812 L 136.023438 72.210938 L 142.957031 67.167969 Z M 142.648438 75.535156 "/>
<path style=" stroke:none;fill-rule:nonzero;fill:#213770;fill-opacity:1;" d="M 166.441406 75.628906 L 173.925781 75.660156 L 173.9375 72.363281 L 167.046875 67.265625 Z M 166.441406 75.628906 "/>
<path style=" stroke:none;fill-rule:nonzero;fill:#213770;fill-opacity:1;" d="M 141.578125 70.046875 L 146.746094 70.066406 C 146.730469 74.554688 150.363281 78.214844 154.847656 78.234375 C 159.335938 78.253906 162.996094 74.617188 163.015625 70.132812 L 168.1875 70.152344 C 168.15625 77.488281 162.164062 83.433594 154.828125 83.402344 C 147.492188 83.375 141.546875 77.382812 141.578125 70.046875 "/>
<path style=" stroke:none;fill-rule:nonzero;fill:#213770;fill-opacity:1;" d="M 146.820312 71.164062 L 141.652344 71.164062 L 141.652344 61.070312 L 146.832031 59.570312 Z M 146.820312 71.164062 "/>
<path style=" stroke:none;fill-rule:nonzero;fill:#213770;fill-opacity:1;" d="M 163.019531 71.164062 L 168.1875 71.164062 L 168.257812 61.015625 L 163.089844 59.90625 Z M 163.019531 71.164062 "/>
<path style=" stroke:none;fill-rule:nonzero;fill:rgb(88.235474%,0%,10.195923%);fill-opacity:1;" d="M 150.253906 89.308594 L 148.8125 105.792969 L 146.066406 105.785156 L 144.757812 89.285156 Z M 150.253906 89.308594 "/>
<path style=" stroke:none;fill-rule:nonzero;fill:rgb(88.235474%,0%,10.195923%);fill-opacity:1;" d="M 157.324219 89.335938 L 155.898438 101.699219 L 153.152344 101.6875 L 151.824219 89.316406 Z M 157.324219 89.335938 "/>
<path style=" stroke:none;fill-rule:nonzero;fill:rgb(88.235474%,0%,10.195923%);fill-opacity:1;" d="M 164.78125 89.367188 L 163.375 97.410156 L 160.628906 97.398438 L 159.285156 89.347656 Z M 164.78125 89.367188 "/>
<path style=" stroke:none;fill-rule:nonzero;fill:#213770;fill-opacity:1;" d="M 168.261719 61.015625 L 163.089844 61.066406 C 163.042969 56.582031 159.359375 52.96875 154.871094 53.015625 C 150.386719 53.058594 146.777344 56.746094 146.820312 61.230469 L 141.652344 61.28125 C 141.578125 53.945312 147.488281 47.917969 154.820312 47.847656 C 162.15625 47.773438 168.1875 53.679688 168.261719 61.015625 "/>
<path style=" stroke:none;fill-rule:nonzero;fill:rgb(88.235474%,0%,10.195923%);fill-opacity:1;" d="M 154.917969 56.34375 C 157.007812 56.324219 158.71875 58 158.742188 60.089844 C 158.761719 62.179688 157.082031 63.894531 154.992188 63.914062 C 152.902344 63.933594 151.191406 62.257812 151.171875 60.167969 C 151.148438 58.074219 152.828125 56.363281 154.917969 56.34375 "/>
</svg>
